<svg xmlns="http://www.w3.org/2000/svg" xmlns:xlink="http://www.w3.org/1999/xlink" width="33.533" height="45.044" viewBox="0 0 33.533 45.044">
  <defs>
    <clipPath id="clip-path">
      <path id="Clip_3" data-name="Clip 3" d="M0,0H33.066V37.234H0Z" transform="translate(0 0)" fill="none"/>
    </clipPath>
  </defs>
  <g id="sell" transform="translate(0.467 0.956)">
    <path id="Fill_1" data-name="Fill 1" d="M14.5,29A14.5,14.5,0,1,1,29,14.5,14.516,14.516,0,0,1,14.5,29Zm0-27.067A12.567,12.567,0,1,0,27.067,14.5,12.581,12.581,0,0,0,14.5,1.933Z" transform="translate(-0.467 -0.956)" fill="#fff"/>
    <g id="Group_5" data-name="Group 5" transform="translate(0 6.855)">
      <path id="Clip_3-2" data-name="Clip 3" d="M0,0H33.066V37.234H0Z" transform="translate(0 0)" fill="none"/>
      <g id="Group_5-2" data-name="Group 5" transform="translate(0 0)" clip-path="url(#clip-path)">
        <path id="Fill_2" data-name="Fill 2" d="M4.133,10.9H.919a.908.908,0,1,0,0,1.816H2.756v.908a.919.919,0,0,0,1.837,0v-.954a3.169,3.169,0,0,0-.459-6.311H3.215a1.362,1.362,0,1,1,0-2.724H6.43a.908.908,0,1,0,0-1.816H4.593V.908a.919.919,0,0,0-1.837,0v.954a3.169,3.169,0,0,0,.459,6.311h.918a1.362,1.362,0,1,1,0,2.724" transform="translate(10.104 0)" fill="#fff"/>
        <path id="Fill_4" data-name="Fill 4" d="M32.148,0H24.8a.913.913,0,0,0-.919.908.913.913,0,0,0,.919.908H29.93L18.37,13.246l-6.7-6.623a.926.926,0,0,0-1.3,0l-10.1,9.99a.9.9,0,0,0,0,1.284.926.926,0,0,0,1.3,0l9.454-9.348,6.7,6.623a.926.926,0,0,0,1.3,0L31.229,3.1V8.173a.919.919,0,0,0,1.837,0V.908A.913.913,0,0,0,32.148,0" transform="translate(0 19.071)" fill="#fff"/>
      </g>
    </g>
  </g>
</svg>
